<svg aria-hidden="true" style="position: absolute; width: 0; height: 0; overflow: hidden;" version="1.1" xmlns="http://www.w3.org/2000/svg" xmlns:xlink="http://www.w3.org/1999/xlink">
<defs>
<symbol id="icon-arrowx1" viewBox="0 0 32 32">
<path fill="none" stroke="#a3a3a3" style="stroke: var(--color1, #a3a3a3)" stroke-linejoin="round" stroke-linecap="round" stroke-miterlimit="4" stroke-width="4.8" d="M22.4 28.8l-12.8-12.8 12.8-12.8"></path>
</symbol>
<symbol id="icon-arrowx2" viewBox="0 0 32 32">
<path fill="none" stroke="#a3a3a3" style="stroke: var(--color1, #a3a3a3)" stroke-linejoin="round" stroke-linecap="round" stroke-miterlimit="4" stroke-width="2" d="M16 21.333l-5.333-5.333 5.333-5.333"></path>
<path fill="none" stroke="#a3a3a3" style="stroke: var(--color1, #a3a3a3)" stroke-linejoin="round" stroke-linecap="round" stroke-miterlimit="4" stroke-width="2" d="M21.333 21.333l-5.333-5.333 5.333-5.333"></path>
</symbol>
<symbol id="icon-discount" viewBox="0 0 32 32">
<path fill="#fafafa" style="fill: var(--color2, #fafafa)" d="M26.947 20.862l-0.233 0.63-4.294-1.582 0.233-0.63 0.354 0.131 0.004-0.012c-0.15-0.24-0.274-0.626-0.099-1.1 0.29-0.786 1.118-1.143 2.127-0.771s1.406 1.18 1.116 1.966c-0.175 0.474-0.508 0.693-0.802 0.768l-0.004 0.012 1.597 0.589zM23.39 18.597c-0.191 0.516 0.118 0.992 0.797 1.242 0.685 0.252 1.223 0.089 1.413-0.427 0.204-0.552-0.192-1.032-0.792-1.254s-1.214-0.113-1.418 0.439z"></path>
<path fill="#fafafa" style="fill: var(--color2, #fafafa)" d="M25.093 22.529c0.11-0.15 0.327-0.229 0.513-0.093s0.171 0.363 0.061 0.512c-0.117 0.16-0.325 0.238-0.511 0.102s-0.18-0.361-0.062-0.521zM24.846 21.936l-0.397 0.542-2.64-1.93 0.397-0.542 2.64 1.93z"></path>
<path fill="#fafafa" style="fill: var(--color2, #fafafa)" d="M21.829 23.303c-0.554 0.274-1.144 0.585-1.641-0.017-0.4-0.483-0.233-1.126 0.38-1.63 0.815-0.671 1.48-0.58 1.945-0.068l-0.504 0.415c-0.249-0.251-0.559-0.385-1.093 0.054-0.361 0.297-0.367 0.601-0.237 0.758 0.261 0.316 0.583 0.092 1.027-0.124 0.478-0.236 1.087-0.604 1.559-0.032 0.342 0.414 0.25 1.046-0.382 1.567-0.687 0.565-1.319 0.464-1.716 0.053l0.504-0.415c0.198 0.169 0.464 0.29 0.869-0.044 0.311-0.256 0.381-0.513 0.235-0.691-0.212-0.257-0.51-0.044-0.945 0.173z"></path>
<path fill="#fafafa" style="fill: var(--color2, #fafafa)" d="M18.351 25.162c0.132 0.307 0.462 0.62 1.007 0.435 0.624-0.212 0.709-0.836 0.51-1.417s-0.641-1.026-1.271-0.812c-0.545 0.185-0.617 0.629-0.524 0.982l-0.636 0.216c-0.196-0.731 0.176-1.445 0.982-1.719 0.927-0.315 1.755 0.148 2.085 1.117s-0.042 1.839-0.963 2.152c-0.806 0.274-1.509-0.062-1.828-0.738l0.636-0.216z"></path>
<path fill="#fafafa" style="fill: var(--color2, #fafafa)" d="M15.606 23.245c1.022 0.063 1.599 0.809 1.537 1.825s-0.724 1.687-1.746 1.624c-1.022-0.062-1.599-0.809-1.537-1.825s0.724-1.687 1.746-1.624zM15.573 23.794c-0.639-0.039-1.002 0.445-1.042 1.116-0.041 0.677 0.261 1.196 0.9 1.235s1.001-0.439 1.042-1.116c0.041-0.671-0.261-1.196-0.9-1.235z"></path>
<path fill="#fafafa" style="fill: var(--color2, #fafafa)" d="M10.771 25.275l-0.605-0.293 1.431-2.941 0.605 0.293-0.185 0.38 0.012 0.006c0.267-0.155 0.685-0.237 1.191 0.009 0.547 0.265 0.825 0.791 0.497 1.465l-0.988 2.032-0.61-0.296 0.904-1.859c0.193-0.397 0.149-0.731-0.265-0.932-0.466-0.226-0.903-0.090-1.116 0.348l-0.871 1.79z"></path>
<path fill="#fafafa" style="fill: var(--color2, #fafafa)" d="M7.834 22.957c-0.406-0.453-0.464-1.045 0.095-1.543l1.685-1.504 0.453 0.505-1.542 1.377c-0.329 0.294-0.416 0.62-0.108 0.963 0.346 0.386 0.802 0.425 1.165 0.101l1.485-1.326 0.448 0.5-2.44 2.178-0.448-0.5 0.315-0.281-0.009-0.009c-0.306 0.042-0.724-0.040-1.1-0.46z"></path>
<path fill="#fafafa" style="fill: var(--color2, #fafafa)" d="M6.448 19.376l0.253 0.56 1.617-0.728c0.338-0.152 0.306-0.334 0.103-0.72l0.502-0.226c0.085 0.109 0.163 0.236 0.237 0.399 0.222 0.49 0.121 0.858-0.509 1.142l-1.669 0.751 0.195 0.432-0.502 0.226-0.195-0.432-0.94 0.423-0.28-0.618 0.94-0.423-0.253-0.56 0.502-0.226z"></path>
<path fill="#fafafa" style="fill: var(--color2, #fafafa)" d="M4.494 12.648l0.146-0.656 4.467 0.994-0.146 0.656-0.369-0.082-0.003 0.012c0.181 0.217 0.355 0.584 0.245 1.077-0.182 0.818-0.954 1.283-2.004 1.049s-1.552-0.981-1.37-1.8c0.11-0.493 0.411-0.754 0.692-0.869l0.003-0.012-1.662-0.37zM8.322 14.417c0.12-0.537-0.25-0.967-0.956-1.124-0.712-0.158-1.223 0.075-1.343 0.613-0.128 0.575 0.329 0.998 0.953 1.136s1.218-0.050 1.346-0.625z"></path>
<path fill="#fafafa" style="fill: var(--color2, #fafafa)" d="M6.103 10.748c-0.089 0.163-0.293 0.271-0.495 0.161s-0.218-0.336-0.129-0.5c0.095-0.174 0.29-0.279 0.493-0.17s0.226 0.334 0.132 0.508zM6.428 11.303l0.321-0.59 2.875 1.559-0.321 0.59-2.875-1.559z"></path>
<path fill="#fafafa" style="fill: var(--color2, #fafafa)" d="M9.241 9.534c0.514-0.344 1.057-0.73 1.629-0.198 0.459 0.427 0.379 1.086-0.163 1.666-0.72 0.772-1.391 0.769-1.919 0.322l0.445-0.477c0.28 0.216 0.605 0.309 1.076-0.197 0.319-0.342 0.285-0.644 0.135-0.783-0.3-0.279-0.59-0.015-1.002 0.257-0.443 0.296-0.998 0.741-1.542 0.236-0.394-0.366-0.385-1.004 0.174-1.603 0.607-0.65 1.247-0.633 1.694-0.278l-0.445 0.477c-0.218-0.142-0.498-0.227-0.856 0.157-0.275 0.295-0.311 0.559-0.142 0.715 0.244 0.227 0.511-0.023 0.914-0.295z"></path>
<path fill="#fafafa" style="fill: var(--color2, #fafafa)" d="M12.397 7.25c-0.172-0.286-0.542-0.552-1.057-0.295-0.59 0.295-0.589 0.924-0.314 1.473s0.774 0.93 1.37 0.632c0.515-0.257 0.526-0.706 0.386-1.044l0.601-0.3c0.293 0.698 0.022 1.456-0.74 1.836-0.876 0.438-1.759 0.091-2.218-0.824s-0.208-1.828 0.662-2.262c0.761-0.38 1.504-0.143 1.911 0.483l-0.601 0.3z"></path>
<path fill="#fafafa" style="fill: var(--color2, #fafafa)" d="M15.372 8.765c-1.021 0.074-1.693-0.589-1.767-1.604s0.492-1.768 1.513-1.843c1.021-0.074 1.693 0.589 1.768 1.604s-0.492 1.768-1.513 1.843zM15.331 8.217c0.638-0.046 0.933-0.575 0.884-1.245-0.050-0.677-0.418-1.15-1.057-1.104s-0.934 0.568-0.884 1.245c0.049 0.67 0.418 1.15 1.057 1.104z"></path>
<path fill="#fafafa" style="fill: var(--color2, #fafafa)" d="M19.919 6.105l0.638 0.21-1.026 3.105-0.638-0.21 0.133-0.401-0.012-0.004c-0.244 0.189-0.647 0.326-1.182 0.149-0.577-0.191-0.923-0.675-0.688-1.386l0.709-2.145 0.644 0.213-0.649 1.963c-0.139 0.419-0.051 0.745 0.387 0.889 0.492 0.162 0.907-0.031 1.059-0.493l0.625-1.89z"></path>
<path fill="#fafafa" style="fill: var(--color2, #fafafa)" d="M23.143 8.004c0.462 0.396 0.597 0.975 0.108 1.543l-1.473 1.713-0.515-0.441 1.348-1.567c0.288-0.335 0.331-0.669-0.019-0.969-0.394-0.337-0.851-0.316-1.168 0.053l-1.298 1.509-0.51-0.437 2.132-2.48 0.51 0.437-0.275 0.32 0.010 0.008c0.298-0.082 0.723-0.055 1.15 0.311z"></path>
<path fill="#fafafa" style="fill: var(--color2, #fafafa)" d="M24.984 11.342l-0.326-0.521-1.504 0.939c-0.315 0.196-0.258 0.372-0.005 0.727l-0.467 0.291c-0.099-0.097-0.193-0.211-0.288-0.363-0.285-0.456-0.236-0.834 0.351-1.2l1.553-0.969-0.252-0.401 0.467-0.291 0.252 0.401 0.874-0.546 0.36 0.575-0.874 0.546 0.326 0.521-0.467 0.291z"></path>
<path fill="#fafafa" style="fill: var(--color2, #fafafa)" d="M17.556 14.756c-2.8 0.622-3.453 2.542-4.1 4.15l0.588 0.205 0.296-0.716c0.149 0.053 0.305 0.093 0.417 0.093 3.422 0 4.356-5.289 4.356-5.289-0.311 0.622-2.489 0.7-4.044 1.011s-2.178 1.633-2.178 2.256 0.544 1.167 0.544 1.167c1.011-2.878 4.122-2.878 4.122-2.878z"></path>
</symbol>
<symbol id="icon-eco_food" viewBox="0 0 32 32">
<path d="M25.905 17.123c0.114-0.893 0.803-1.355 1.69-1.242s1.438 0.734 1.323 1.627c-0.114 0.893-0.803 1.355-1.69 1.242s-1.438-0.734-1.323-1.627zM26.385 17.184c-0.071 0.558 0.332 0.905 0.918 0.98 0.592 0.076 1.064-0.159 1.135-0.717s-0.327-0.904-0.918-0.98c-0.586-0.075-1.064 0.159-1.135 0.717z"></path>
<path d="M28.062 20.787c-0.034 0.095-0.064 0.163-0.102 0.238l-0.525-0.186 0.004-0.011c0.28-0.504 0.071-1.061-0.507-1.266l-1.384-0.49 0.197-0.557 2.71 0.959-0.197 0.557-0.509-0.18-0.004 0.011c0.289 0.263 0.443 0.569 0.317 0.924z"></path>
<path d="M26.615 23.318l-0.312 0.502-2.275-1.413c-0.703-0.436-0.749-1.055-0.319-1.748 0.436-0.703 1.045-0.861 1.488-0.659l-0.315 0.507c-0.245-0.086-0.514-0.015-0.76 0.382-0.261 0.421-0.204 0.754 0.236 1.027l0.296 0.184 0.006-0.010c-0.102-0.242-0.144-0.579 0.097-0.966 0.38-0.612 1.090-0.807 1.86-0.329 0.774 0.481 0.91 1.201 0.53 1.813-0.24 0.387-0.562 0.499-0.814 0.521l-0.006 0.010 0.287 0.178zM25.109 21.476c-0.252 0.406-0.136 0.816 0.38 1.137s0.935 0.243 1.188-0.163c0.273-0.44 0.083-0.869-0.371-1.151-0.449-0.279-0.923-0.262-1.196 0.178z"></path>
<path d="M24.020 25.083c0.143 0.151 0.342 0.18 0.627-0.091 0.343-0.326 0.368-0.552 0.133-0.84l0.416-0.395c0.359 0.419 0.401 0.977-0.227 1.574-0.461 0.438-0.97 0.588-1.497 0.034l-0.942-0.991c-0.14-0.147-0.246-0.193-0.398-0.018l-0.194-0.204c0.063-0.13 0.125-0.204 0.206-0.281 0.228-0.217 0.412-0.236 0.646-0.071l0.008-0.008c-0.044-0.308 0.072-0.659 0.395-0.965 0.424-0.403 0.918-0.406 1.251-0.056 0.434 0.457 0.231 0.921-0.194 1.519-0.264 0.367-0.421 0.594-0.231 0.794zM23.422 23.253c-0.355 0.337-0.433 0.745-0.111 1.084l0.298 0.314c0.023-0.115 0.143-0.323 0.305-0.553 0.281-0.415 0.339-0.664 0.138-0.876-0.182-0.192-0.397-0.189-0.63 0.032z"></path>
<path d="M21.958 27.496c-0.469 0.256-0.988 0.187-1.304-0.39l-0.953-1.743 0.523-0.286 0.872 1.594c0.186 0.341 0.448 0.48 0.804 0.285 0.4-0.219 0.524-0.601 0.319-0.976l-0.84-1.535 0.518-0.283 1.379 2.523-0.518 0.283-0.178-0.326-0.010 0.005c-0.025 0.27-0.179 0.611-0.613 0.848z"></path>
<path d="M20.145 28.701c0.155-0.050 0.351 0.005 0.413 0.197s-0.065 0.346-0.22 0.397c-0.166 0.054-0.354 0.003-0.417-0.19s0.058-0.35 0.224-0.404zM20.274 28.151l-0.562 0.182-0.887-2.735 0.562-0.182 0.888 2.735z"></path>
<path d="M16.736 27.841c0.059 0.287 0.289 0.615 0.791 0.551 0.575-0.073 0.758-0.596 0.689-1.132s-0.371-0.996-0.952-0.922c-0.502 0.064-0.642 0.434-0.624 0.755l-0.586 0.075c-0.040-0.664 0.406-1.215 1.148-1.31 0.854-0.109 1.485 0.434 1.599 1.327s-0.36 1.578-1.208 1.686c-0.742 0.095-1.288-0.317-1.444-0.956l0.586-0.075z"></path>
<path d="M11.036 28.715c0.36 0.13 0.512 0.136 0.609-0.175l0.094-0.301-0.505-0.158 0.144-0.462 0.505 0.158 0.712-2.283 0.569 0.178-0.712 2.283 0.392 0.122-0.144 0.462-0.392-0.122-0.109 0.349c-0.181 0.58-0.492 0.707-0.943 0.566-0.14-0.044-0.258-0.098-0.364-0.155l0.144-0.462z"></path>
<path d="M10.993 24.692c0.788 0.435 0.964 1.245 0.532 2.029s-1.212 1.067-2 0.632c-0.788-0.435-0.964-1.245-0.532-2.029s1.212-1.067 2-0.632zM10.759 25.116c-0.493-0.272-0.964-0.024-1.249 0.493-0.288 0.522-0.244 1.048 0.249 1.32s0.961 0.029 1.249-0.493c0.285-0.517 0.244-1.048-0.249-1.32z"></path>
<path d="M8.902 23.159c0.653 0.62 0.618 1.449 0.002 2.097s-1.442 0.725-2.095 0.105c-0.653-0.62-0.618-1.449-0.002-2.097s1.442-0.725 2.095-0.105zM8.569 23.509c-0.408-0.388-0.926-0.267-1.333 0.161-0.411 0.432-0.501 0.952-0.093 1.34s0.922 0.271 1.333-0.161c0.407-0.428 0.501-0.952 0.093-1.34z"></path>
<path d="M3.389 22.669l-0.304-0.506 3.449-2.072 0.304 0.506-0.285 0.171 0.006 0.010c0.247 0.029 0.58 0.157 0.809 0.538 0.38 0.632 0.169 1.395-0.642 1.882s-1.583 0.314-1.963-0.317c-0.229-0.381-0.195-0.729-0.085-0.973l-0.006-0.010-1.283 0.771zM6.901 21.478c-0.249-0.415-0.745-0.465-1.29-0.137-0.55 0.33-0.734 0.789-0.485 1.204 0.267 0.444 0.814 0.437 1.296 0.147s0.745-0.769 0.479-1.213z"></path>
<path d="M5.768 16.237c0.035 0.9-0.568 1.469-1.462 1.503s-1.539-0.487-1.574-1.386 0.568-1.469 1.462-1.504c0.894-0.035 1.539 0.487 1.574 1.386zM5.284 16.255c-0.022-0.562-0.477-0.837-1.067-0.815-0.596 0.023-1.023 0.332-1.002 0.895s0.472 0.838 1.067 0.815c0.59-0.023 1.023-0.332 1.001-0.895z"></path>
<path d="M3.042 12.923c0.018-0.1 0.036-0.171 0.062-0.252l0.548 0.098-0.002 0.011c-0.194 0.543 0.102 1.059 0.706 1.167l1.446 0.259-0.104 0.582-2.83-0.506 0.104-0.582 0.532 0.095 0.002-0.011c-0.328-0.213-0.53-0.489-0.463-0.86z"></path>
<path d="M4.051 10.203l0.226-0.546 2.474 1.025c0.764 0.316 0.91 0.919 0.598 1.673-0.316 0.764-0.891 1.019-1.362 0.891l0.228-0.551c0.255 0.045 0.51-0.069 0.688-0.5 0.189-0.457 0.078-0.777-0.4-0.976l-0.322-0.133-0.004 0.010c0.139 0.222 0.236 0.548 0.061 0.969-0.276 0.665-0.945 0.973-1.782 0.626-0.842-0.349-1.093-1.037-0.817-1.703 0.174-0.421 0.473-0.584 0.718-0.646l0.004-0.010-0.312-0.129zM5.835 11.777c0.183-0.442 0.002-0.828-0.56-1.060s-0.962-0.088-1.145 0.354c-0.198 0.478 0.059 0.871 0.553 1.076 0.489 0.202 0.954 0.109 1.152-0.369z"></path>
<path d="M6.325 8.036c-0.166-0.126-0.366-0.123-0.605 0.19-0.286 0.376-0.276 0.603 0.003 0.851l-0.348 0.457c-0.422-0.356-0.552-0.901-0.027-1.59 0.385-0.506 0.864-0.735 1.473-0.272l1.088 0.828c0.161 0.123 0.273 0.152 0.395-0.046l0.224 0.17c-0.041 0.138-0.091 0.221-0.159 0.311-0.191 0.251-0.369 0.299-0.627 0.173l-0.007 0.009c0.092 0.297 0.033 0.662-0.236 1.016-0.354 0.466-0.841 0.548-1.226 0.254-0.501-0.382-0.375-0.873-0.051-1.531 0.202-0.405 0.321-0.654 0.102-0.821zM7.207 9.747c0.297-0.389 0.309-0.805-0.063-1.088l-0.345-0.262c-0.004 0.117-0.090 0.341-0.213 0.595-0.212 0.454-0.229 0.71 0.004 0.887 0.21 0.16 0.422 0.123 0.617-0.132z"></path>
<path d="M7.935 5.343c0.421-0.33 0.944-0.347 1.35 0.171l1.226 1.562-0.469 0.368-1.122-1.43c-0.24-0.305-0.521-0.399-0.84-0.149-0.359 0.281-0.418 0.679-0.154 1.015l1.080 1.377-0.465 0.365-1.775-2.262 0.465-0.365 0.229 0.292 0.009-0.007c-0.019-0.271 0.076-0.632 0.466-0.938z"></path>
<path d="M9.554 3.834c-0.145 0.075-0.347 0.053-0.44-0.127s0.007-0.352 0.152-0.427c0.155-0.080 0.349-0.060 0.442 0.119s0 0.355-0.155 0.435zM9.517 4.399l0.525-0.272 1.323 2.553-0.524 0.272-1.323-2.553z"></path>
<path d="M13.060 4.122c-0.106-0.274-0.385-0.56-0.87-0.415-0.555 0.166-0.65 0.712-0.495 1.229s0.529 0.922 1.089 0.754c0.485-0.145 0.563-0.533 0.492-0.846l0.566-0.17c0.147 0.649-0.202 1.265-0.919 1.48-0.825 0.247-1.536-0.186-1.794-1.048s0.097-1.615 0.917-1.861c0.717-0.215 1.323 0.103 1.58 0.707l-0.566 0.17z"></path>
<path d="M18.518 2.329c-0.377-0.070-0.527-0.051-0.572 0.272l-0.044 0.312 0.524 0.073-0.067 0.479-0.524-0.073-0.331 2.368-0.591-0.082 0.331-2.368-0.407-0.057 0.067-0.479 0.407 0.057 0.051-0.362c0.084-0.602 0.37-0.778 0.838-0.712 0.145 0.020 0.271 0.055 0.385 0.093l-0.067 0.479z"></path>
<path d="M19.227 6.287c-0.849-0.3-1.155-1.071-0.856-1.915s1.021-1.25 1.87-0.95c0.849 0.3 1.155 1.071 0.856 1.915s-1.021 1.25-1.87 0.95zM19.388 5.83c0.53 0.188 0.954-0.134 1.152-0.691 0.199-0.562 0.070-1.074-0.461-1.261s-0.953 0.128-1.152 0.691c-0.197 0.557-0.070 1.074 0.461 1.261z"></path>
<path d="M21.505 7.43c-0.745-0.505-0.846-1.329-0.344-2.069s1.304-0.951 2.049-0.446c0.745 0.505 0.846 1.329 0.344 2.069s-1.304 0.951-2.049 0.446zM21.777 7.029c0.466 0.316 0.957 0.112 1.289-0.377 0.335-0.494 0.339-1.021-0.127-1.337s-0.954-0.117-1.289 0.377c-0.332 0.489-0.339 1.021 0.127 1.337z"></path>
<path d="M27.085 7.066l0.381 0.451-3.072 2.597-0.381-0.451 0.253-0.214-0.007-0.009c-0.248 0.011-0.598-0.062-0.885-0.402-0.476-0.563-0.39-1.35 0.332-1.96s1.512-0.564 1.988-0.001c0.287 0.339 0.31 0.689 0.24 0.946l0.007 0.009 1.143-0.966zM23.81 8.804c0.312 0.37 0.81 0.339 1.296-0.071 0.49-0.414 0.598-0.896 0.286-1.266-0.334-0.395-0.873-0.301-1.303 0.063s-0.613 0.879-0.278 1.274z"></path>
</symbol>
<symbol id="icon-facebook" viewBox="0 0 32 32">
<path fill="#e8e8e2" style="fill: var(--color3, #e8e8e2)" opacity="0.8" d="M19.519 4.64c0.24 0 0.48 0 0.96 0v3.6c-0.24 0-0.72 0-1.2 0s-0.96 0-1.2 0.24c-0.24 0.24-0.24 0.48-0.24 1.040 0 0.48 0 0.8 0 1.28h2.64v3.040h-2.64v13.2h-4.080v-13.28h-2.16v-3.040h2.16v-1.040c0-1.76 0.24-3.040 0.72-3.6 0.72-1.040 2.16-1.52 4.32-1.52 0.24 0.080 0.48 0.080 0.72 0.080z"></path>
</symbol>
<symbol id="icon-food_boot" viewBox="0 0 32 32">
<path fill="" style="" d="M17.487 4.624c-0.463-0.704-1.086-1.289-1.817-1.707-2.011-1.153-4.601-0.951-6.992 0.388-4.439 2.487-7.345 7.161-7.345 12.695 0 7.387 5.347 13.351 12.329 14.48 0.763 0.123 1.543 0.187 2.337 0.187 1.938 0.007 3.857-0.372 5.647-1.113s3.414-1.832 4.779-3.207 2.443-3.008 3.17-4.804c0.728-1.796 1.092-3.718 1.070-5.656-0.031-2.576-1.064-5.737-2.697-8.264-1.627-2.517-4.128-4.811-7.236-4.781-1.517 0.003-2.553 0.837-3.245 1.784v-0.001zM26.36 10.15c-0.557-0.090-1.123-0.104-1.684-0.044l-1.547-2.6-2.291 1.36 1.189 2c-0.498 0.234-0.973 0.513-1.42 0.833-0.008-0.026-0.016-0.052-0.024-0.077-0.356-1.080-1.044-1.967-1.961-2.848l0.005-0.027c0.092-0.431 0.239-0.987 0.459-1.527 0.497-1.221 1.075-1.716 1.653-1.716h0.015c1.721-0.019 3.515 1.303 4.975 3.561 0.227 0.351 0.437 0.712 0.632 1.083l-0.001 0.001zM18.145 14.146c-0.44 0.011-0.892 0.060-1.333 0.156-0.36-0.602-0.842-1.123-1.416-1.527-1.053-0.74-2.496-1.107-4.056-0.524-0.143-0.082-0.287-0.163-0.432-0.241l4.311-4.225-1.867-1.904-5.113 5.012c-1.080-0.313-2.089-0.425-2.996-0.3 1.043-2.094 2.696-3.824 4.74-4.963 1.819-1.019 3.383-0.963 4.361-0.401 0.933 0.535 1.708 1.748 1.513 3.916l-0.060 0.671 0.504 0.447c1.096 0.969 1.552 1.596 1.749 2.195 0.139 0.42 0.184 0.928 0.095 1.689zM14.399 15.486c-1.139 0.953-1.903 2.291-2.347 3.736l-3.965-4.353-1.972 1.797 5.451 5.984c-0.007 1.589 0.197 3.216 0.493 4.687-2.36-0.81-4.407-2.34-5.852-4.373s-2.218-4.469-2.208-6.964c0-1.387 0.385-2.143 0.839-2.473 0.428-0.315 1.368-0.572 3.293 0.139 0.696 0.257 1.501 0.652 2.423 1.225l0.669 0.416 0.688-0.387c0.831-0.467 1.465-0.301 1.952 0.040 0.213 0.149 0.396 0.336 0.536 0.527zM16.752 27.976l9.723-10.716-1.975-1.792-3.909 4.308 0.009-1.352-2.667-0.019-0.031 4.333-3.311 3.649c-0.251-1.361-0.4-2.824-0.352-4.196 0.085-2.34 1.020-4.263 2.403-5.024 0.573-0.316 1.585-0.44 2.385-0.299l1.187 0.207 0.327-1.159c0.171-0.604 0.623-1.251 1.329-1.827 0.717-0.579 1.551-0.996 2.445-1.221 1.068-0.261 1.979-0.125 2.579 0.288 0.524 0.36 1.051 1.096 1.1 2.605v0.024l0.004 0.213c0.013 3.056-1.145 6.001-3.237 8.229s-4.958 3.569-8.009 3.747z"></path>
</symbol>
<symbol id="icon-instagram" viewBox="0 0 32 32">
<path fill="#e8e8e2" style="fill: var(--color3, #e8e8e2)" opacity="0.8" d="M28.718 10.756c-0.016-1.074-0.215-2.14-0.596-3.145-0.667-1.716-2.024-3.073-3.743-3.737-0.994-0.373-2.044-0.573-3.108-0.596-1.367-0.061-1.801-0.078-5.273-0.078s-3.916 0-5.274 0.078c-1.062 0.023-2.112 0.223-3.106 0.596-1.719 0.664-3.078 2.021-3.743 3.737-0.374 0.992-0.576 2.041-0.596 3.101-0.061 1.367-0.080 1.8-0.080 5.265s0 3.909 0.080 5.265c0.021 1.062 0.222 2.109 0.596 3.104 0.667 1.714 2.024 3.071 3.744 3.735 0.989 0.386 2.040 0.605 3.106 0.639 1.369 0.061 1.803 0.079 5.274 0.079s3.917 0 5.274-0.079c1.062-0.021 2.112-0.221 3.108-0.595 1.719-0.666 3.076-2.022 3.743-3.737 0.374-0.993 0.574-2.041 0.596-3.104 0.061-1.365 0.080-1.798 0.080-5.265-0.003-3.466-0.003-3.906-0.082-5.264zM15.991 22.531c-3.631 0-6.572-2.936-6.572-6.561s2.941-6.561 6.572-6.561c3.628 0 6.572 2.936 6.572 6.561s-2.944 6.561-6.572 6.561zM22.824 10.696c-0.849 0-1.532-0.684-1.532-1.53s0.684-1.53 1.532-1.53c0.846 0 1.531 0.684 1.531 1.53s-0.685 1.53-1.531 1.53z"></path>
<path fill="#e8e8e2" style="fill: var(--color3, #e8e8e2)" opacity="0.8" d="M15.991 19.976c2.211 0 4.004-1.793 4.004-4.004s-1.793-4.004-4.004-4.004c-2.211 0-4.004 1.793-4.004 4.004s1.793 4.004 4.004 4.004z"></path>
</symbol>
<symbol id="icon-lupa" viewBox="0 0 32 32">
<path d="M21.833 19.333h-1.317l-0.467-0.45c1.69-1.96 2.619-4.462 2.617-7.050 0-2.143-0.635-4.237-1.826-6.019s-2.882-3.17-4.862-3.99-4.158-1.034-6.259-0.616c-2.101 0.418-4.032 1.45-5.547 2.965s-2.547 3.445-2.965 5.547c-0.418 2.101-0.203 4.28 0.616 6.259s2.208 3.671 3.99 4.862c1.782 1.19 3.876 1.826 6.019 1.826 2.683 0 5.15-0.983 7.050-2.617l0.45 0.467v1.317l8.333 8.317 2.483-2.483-8.317-8.333zM11.833 19.333c-4.15 0-7.5-3.35-7.5-7.5s3.35-7.5 7.5-7.5c4.15 0 7.5 3.35 7.5 7.5s-3.35 7.5-7.5 7.5z"></path>
</symbol>
<symbol id="icon-organic-food" viewBox="0 0 32 32">
<path d="M25.173 17.182c0.104-0.813 0.731-1.233 1.538-1.13s1.308 0.668 1.204 1.48c-0.104 0.813-0.731 1.233-1.538 1.13s-1.308-0.668-1.204-1.481zM25.61 17.238c-0.065 0.508 0.303 0.823 0.836 0.891 0.538 0.069 0.968-0.145 1.033-0.652s-0.297-0.823-0.836-0.891c-0.533-0.068-0.968 0.145-1.033 0.652z"></path>
<path d="M27.137 20.516c-0.031 0.087-0.058 0.148-0.093 0.217l-0.478-0.169 0.003-0.010c0.255-0.458 0.065-0.966-0.461-1.152l-1.26-0.446 0.179-0.507 2.466 0.873-0.179 0.507-0.463-0.164-0.003 0.010c0.263 0.24 0.403 0.518 0.289 0.841z"></path>
<path d="M25.819 22.819l-0.284 0.457-2.070-1.286c-0.639-0.397-0.682-0.96-0.29-1.59 0.397-0.639 0.951-0.784 1.355-0.599l-0.286 0.461c-0.223-0.078-0.468-0.013-0.692 0.348-0.238 0.383-0.185 0.687 0.215 0.935l0.27 0.167 0.005-0.009c-0.092-0.22-0.131-0.527 0.088-0.879 0.346-0.557 0.992-0.734 1.692-0.299 0.705 0.438 0.828 1.093 0.482 1.65-0.219 0.352-0.511 0.454-0.741 0.474l-0.005 0.009 0.261 0.162zM24.449 21.143c-0.23 0.37-0.124 0.743 0.346 1.035s0.851 0.221 1.081-0.149c0.248-0.4 0.075-0.791-0.338-1.048-0.409-0.254-0.84-0.238-1.089 0.162z"></path>
<path d="M23.458 24.426c0.131 0.137 0.311 0.164 0.571-0.083 0.312-0.296 0.335-0.502 0.121-0.765l0.379-0.36c0.327 0.381 0.365 0.889-0.207 1.433-0.419 0.399-0.883 0.535-1.363 0.031l-0.857-0.902c-0.127-0.134-0.224-0.176-0.362-0.016l-0.176-0.186c0.057-0.118 0.113-0.185 0.188-0.256 0.208-0.198 0.375-0.215 0.588-0.065l0.007-0.007c-0.040-0.28 0.066-0.6 0.359-0.878 0.386-0.367 0.835-0.37 1.138-0.051 0.395 0.416 0.21 0.838-0.176 1.383-0.24 0.334-0.383 0.541-0.21 0.723zM22.914 22.76c-0.323 0.307-0.394 0.678-0.101 0.986l0.272 0.286c0.021-0.104 0.131-0.294 0.277-0.504 0.256-0.377 0.309-0.604 0.125-0.797-0.166-0.174-0.361-0.172-0.573 0.029z"></path>
<path d="M21.582 26.621c-0.427 0.233-0.899 0.171-1.186-0.355l-0.867-1.586 0.476-0.26 0.793 1.451c0.169 0.31 0.408 0.436 0.731 0.26 0.364-0.199 0.477-0.547 0.29-0.888l-0.764-1.397 0.472-0.258 1.255 2.296-0.472 0.258-0.162-0.296-0.009 0.005c-0.023 0.246-0.163 0.556-0.558 0.772z"></path>
<path d="M19.932 27.718c0.141-0.046 0.319 0.004 0.376 0.18s-0.059 0.315-0.2 0.361c-0.151 0.049-0.322 0.002-0.379-0.173s0.053-0.319 0.204-0.368zM20.049 27.217l-0.511 0.166-0.808-2.489 0.511-0.166 0.808 2.489z"></path>
<path d="M16.83 26.935c0.054 0.261 0.263 0.56 0.72 0.502 0.523-0.067 0.689-0.542 0.627-1.030s-0.338-0.907-0.866-0.839c-0.457 0.058-0.584 0.395-0.568 0.687l-0.533 0.068c-0.036-0.604 0.37-1.105 1.045-1.192 0.777-0.099 1.351 0.395 1.455 1.208s-0.327 1.436-1.099 1.534c-0.675 0.086-1.172-0.289-1.314-0.87l0.533-0.068z"></path>
<path d="M11.642 27.731c0.328 0.118 0.466 0.124 0.554-0.16l0.085-0.274-0.459-0.143 0.131-0.42 0.459 0.143 0.648-2.077 0.518 0.162-0.648 2.077 0.357 0.111-0.131 0.42-0.357-0.111-0.099 0.318c-0.165 0.528-0.448 0.643-0.858 0.515-0.127-0.040-0.235-0.089-0.331-0.141l0.131-0.42z"></path>
<path d="M11.604 24.070c0.717 0.396 0.878 1.133 0.484 1.846s-1.103 0.971-1.82 0.575c-0.717-0.396-0.878-1.133-0.484-1.846s1.103-0.971 1.82-0.575zM11.391 24.455c-0.448-0.247-0.877-0.022-1.136 0.449-0.262 0.475-0.222 0.954 0.226 1.201s0.874 0.026 1.136-0.449c0.26-0.471 0.222-0.954-0.226-1.201z"></path>
<path d="M9.701 22.674c0.594 0.564 0.562 1.318 0.001 1.909s-1.312 0.66-1.906 0.096c-0.594-0.564-0.562-1.318-0.001-1.909s1.312-0.66 1.906-0.096zM9.398 22.994c-0.371-0.353-0.843-0.243-1.213 0.147-0.374 0.393-0.456 0.866-0.085 1.219s0.839 0.247 1.213-0.147c0.37-0.39 0.456-0.866 0.085-1.219z"></path>
<path d="M4.684 22.229l-0.277-0.461 3.138-1.885 0.277 0.461-0.259 0.156 0.005 0.009c0.225 0.026 0.528 0.143 0.736 0.49 0.345 0.575 0.153 1.27-0.584 1.713s-1.441 0.286-1.786-0.289c-0.208-0.347-0.178-0.664-0.078-0.885l-0.005-0.009-1.168 0.701zM7.88 21.145c-0.227-0.377-0.678-0.423-1.174-0.125-0.5 0.301-0.668 0.718-0.441 1.095 0.243 0.404 0.74 0.397 1.179 0.134s0.678-0.7 0.436-1.104z"></path>
<path d="M6.849 16.375c0.032 0.819-0.517 1.337-1.331 1.368s-1.401-0.443-1.432-1.262c-0.032-0.819 0.517-1.337 1.331-1.368s1.401 0.443 1.432 1.261zM6.409 16.392c-0.020-0.512-0.434-0.762-0.971-0.741-0.542 0.021-0.931 0.302-0.911 0.814s0.429 0.762 0.971 0.741c0.537-0.021 0.931-0.302 0.911-0.814z"></path>
<path d="M4.368 13.36c0.016-0.091 0.033-0.155 0.057-0.229l0.499 0.089-0.002 0.010c-0.177 0.494 0.093 0.963 0.642 1.062l1.315 0.235-0.095 0.529-2.575-0.461 0.095-0.529 0.484 0.087 0.002-0.010c-0.298-0.194-0.482-0.445-0.422-0.783z"></path>
<path d="M5.287 10.885l0.206-0.497 2.252 0.933c0.695 0.288 0.828 0.836 0.544 1.522-0.288 0.695-0.811 0.928-1.239 0.811l0.208-0.501c0.232 0.041 0.464-0.063 0.626-0.455 0.172-0.416 0.071-0.708-0.364-0.888l-0.293-0.121-0.004 0.009c0.127 0.202 0.215 0.499 0.056 0.882-0.251 0.605-0.86 0.885-1.621 0.57-0.766-0.317-0.995-0.944-0.744-1.549 0.159-0.383 0.431-0.531 0.654-0.588l0.004-0.009-0.284-0.118zM6.91 12.317c0.167-0.402 0.002-0.753-0.509-0.965s-0.876-0.080-1.042 0.322c-0.18 0.435 0.054 0.793 0.503 0.979 0.445 0.184 0.868 0.099 1.048-0.336z"></path>
<path d="M7.356 8.912c-0.151-0.115-0.333-0.112-0.55 0.173-0.261 0.342-0.251 0.549 0.003 0.774l-0.316 0.415c-0.384-0.324-0.502-0.82-0.024-1.447 0.351-0.46 0.786-0.669 1.34-0.247l0.99 0.754c0.147 0.112 0.249 0.138 0.36-0.041l0.204 0.155c-0.038 0.126-0.082 0.201-0.144 0.283-0.174 0.228-0.336 0.272-0.571 0.158l-0.006 0.008c0.084 0.27 0.030 0.602-0.215 0.924-0.323 0.424-0.766 0.498-1.116 0.232-0.456-0.347-0.341-0.794-0.046-1.393 0.184-0.368 0.292-0.595 0.093-0.747zM8.158 10.47c0.27-0.354 0.281-0.732-0.057-0.99l-0.314-0.239c-0.004 0.107-0.082 0.311-0.193 0.541-0.192 0.413-0.208 0.646 0.003 0.807 0.191 0.146 0.384 0.112 0.561-0.12z"></path>
<path d="M8.82 6.462c0.383-0.3 0.859-0.316 1.228 0.155l1.116 1.422-0.427 0.335-1.021-1.301c-0.218-0.278-0.474-0.364-0.764-0.136-0.326 0.256-0.381 0.618-0.141 0.924l0.983 1.253-0.423 0.332-1.615-2.058 0.423-0.332 0.209 0.266 0.008-0.006c-0.018-0.246 0.069-0.575 0.424-0.853z"></path>
<path d="M10.294 5.089c-0.132 0.068-0.315 0.048-0.4-0.116s0.007-0.321 0.139-0.389c0.141-0.073 0.318-0.055 0.402 0.109s0 0.323-0.141 0.396zM10.26 5.603l0.477-0.247 1.204 2.323-0.477 0.247-1.204-2.323z"></path>
<path d="M13.485 5.351c-0.096-0.249-0.35-0.51-0.792-0.377-0.505 0.151-0.592 0.648-0.451 1.119s0.481 0.839 0.991 0.686c0.441-0.132 0.512-0.485 0.448-0.77l0.515-0.154c0.134 0.59-0.184 1.151-0.837 1.346-0.75 0.225-1.398-0.169-1.633-0.954s0.089-1.47 0.834-1.693c0.652-0.195 1.204 0.094 1.438 0.643l-0.515 0.154z"></path>
<path d="M18.451 3.719c-0.343-0.063-0.48-0.046-0.521 0.248l-0.040 0.284 0.477 0.067-0.061 0.436-0.477-0.067-0.301 2.155-0.538-0.075 0.301-2.155-0.37-0.052 0.061-0.436 0.37 0.052 0.046-0.33c0.076-0.548 0.337-0.708 0.763-0.648 0.132 0.018 0.246 0.050 0.35 0.085l-0.061 0.436z"></path>
<path d="M19.096 7.321c-0.772-0.273-1.051-0.975-0.779-1.742s0.929-1.137 1.702-0.864c0.772 0.273 1.051 0.975 0.779 1.742s-0.929 1.137-1.702 0.864zM19.243 6.906c0.483 0.171 0.869-0.122 1.048-0.628 0.181-0.512 0.063-0.977-0.419-1.148s-0.867 0.117-1.048 0.628c-0.179 0.507-0.063 0.977 0.419 1.148z"></path>
<path d="M21.17 8.361c-0.678-0.46-0.77-1.209-0.313-1.883s1.187-0.865 1.865-0.405c0.678 0.46 0.77 1.209 0.313 1.883s-1.187 0.865-1.865 0.405zM21.417 7.997c0.424 0.287 0.871 0.102 1.173-0.343 0.305-0.449 0.308-0.929-0.115-1.216s-0.868-0.106-1.173 0.343c-0.302 0.445-0.308 0.929 0.115 1.216z"></path>
<path d="M26.248 8.030l0.347 0.411-2.796 2.363-0.347-0.411 0.231-0.195-0.007-0.008c-0.226 0.010-0.544-0.056-0.805-0.365-0.433-0.512-0.355-1.229 0.302-1.784s1.376-0.513 1.809-0.001c0.261 0.309 0.282 0.627 0.218 0.861l0.007 0.008 1.040-0.879zM23.267 9.612c0.284 0.336 0.737 0.309 1.179-0.065 0.446-0.377 0.544-0.815 0.26-1.152-0.304-0.36-0.794-0.274-1.186 0.057s-0.558 0.8-0.253 1.16z"></path>
<path d="M17.6 14.72c-2.88 0.64-3.552 2.614-4.218 4.269l0.605 0.211 0.304-0.736c0.154 0.054 0.314 0.096 0.429 0.096 3.52 0 4.48-5.44 4.48-5.44-0.32 0.64-2.56 0.72-4.16 1.040s-2.24 1.68-2.24 2.32c0 0.64 0.56 1.2 0.56 1.2 1.040-2.96 4.24-2.96 4.24-2.96z"></path>
</symbol>
<symbol id="icon-shop" viewBox="0 0 32 32">
<path fill="" style="fill: " d="M3.939 1.723c-0.457 0-0.895 0.182-1.218 0.505s-0.505 0.761-0.505 1.218c0 0.457 0.182 0.895 0.505 1.218s0.761 0.505 1.218 0.505h2.102l0.526 2.106c0.005 0.024 0.011 0.048 0.017 0.072l2.34 9.356-1.539 1.537c-2.171 2.171-0.634 5.883 2.436 5.883h14.794c0.457 0 0.895-0.182 1.218-0.505s0.505-0.761 0.505-1.218-0.182-0.895-0.505-1.218c-0.323-0.323-0.761-0.505-1.218-0.505h-14.794l1.723-1.723h11.348c0.32-0 0.633-0.089 0.906-0.258s0.492-0.409 0.635-0.695l5.169-10.338c0.131-0.263 0.193-0.554 0.18-0.848s-0.101-0.578-0.256-0.828c-0.154-0.25-0.37-0.456-0.626-0.599s-0.545-0.218-0.839-0.218h-18.471l-0.534-2.142c-0.093-0.373-0.309-0.703-0.611-0.94s-0.676-0.365-1.060-0.365h-3.446zM26.339 28.431c0 0.686-0.272 1.343-0.757 1.828s-1.142 0.757-1.828 0.757-1.343-0.272-1.828-0.757c-0.485-0.485-0.757-1.142-0.757-1.828s0.272-1.343 0.757-1.827 1.142-0.757 1.828-0.757c0.686 0 1.343 0.272 1.828 0.757s0.757 1.142 0.757 1.827zM9.97 31.015c0.685 0 1.343-0.272 1.828-0.757s0.757-1.142 0.757-1.828c0-0.685-0.272-1.343-0.757-1.827s-1.142-0.757-1.828-0.757c-0.685 0-1.343 0.272-1.828 0.757s-0.757 1.142-0.757 1.827c0 0.686 0.272 1.343 0.757 1.828s1.142 0.757 1.828 0.757z"></path>
</symbol>
<symbol id="icon-youtube" viewBox="0 0 32 32">
<path fill="#e8e8e2" style="fill: var(--color3, #e8e8e2)" opacity="0.8" d="M24.241 6c-1.36-0.080-4.16-0.16-8.4-0.16h-0.56c-4.080 0-6.8 0.080-8.16 0.24-1.84 0.16-3.12 0.64-3.84 1.28-0.64 0.56-1.12 1.6-1.28 2.96-0.080 0.88-0.16 2.72-0.16 5.52v0.4c0 2.64 0.080 4.48 0.24 5.36 0.24 1.28 0.64 2.24 1.44 2.8 0.8 0.64 2.16 1.040 4.080 1.2 1.36 0.080 4.16 0.16 8.4 0.16h0.56c4.080 0 6.8-0.080 8.16-0.24 1.84-0.16 3.12-0.64 3.84-1.28 0.64-0.56 1.12-1.6 1.28-2.96 0.080-0.88 0.16-2.72 0.16-5.52v-0.4c0-2.64-0.080-4.48-0.24-5.36-0.24-1.28-0.64-2.24-1.44-2.8-0.8-0.64-2.16-1.040-4.080-1.2zM21.121 15.84l-8.8 5.28v-10.56l8.8 5.28z"></path>
</symbol>
</defs>
</svg>
