<?xml version="1.0" encoding="utf-8"?><!-- Uploaded to: SVG Repo, www.svgrepo.com, Generator: SVG Repo Mixer Tools -->
<svg width="800px" height="800px" viewBox="0 0 24 24" fill="none" xmlns="http://www.w3.org/2000/svg">
<path d="M15 14V17.6C15 18.4401 15 18.8601 14.8365 19.181C14.6927 19.4632 14.4632 19.6927 14.181 19.8365C13.8601 20 13.4401 20 12.6 20H7.40001C6.55994 20 6.1399 20 5.81903 19.8365C5.53679 19.6927 5.30731 19.4632 5.1635 19.181C5.00001 18.8601 5.00001 18.4401 5.00001 17.6V10M19 10V20M5.00001 16H15M5.55778 4.88446L3.5789 8.84223C3.38722 9.22559 3.29138 9.41727 3.3144 9.57308C3.3345 9.70914 3.40976 9.8309 3.52246 9.90973C3.65153 10 3.86583 10 4.29444 10H19.7056C20.1342 10 20.3485 10 20.4776 9.90973C20.5903 9.8309 20.6655 9.70914 20.6856 9.57308C20.7086 9.41727 20.6128 9.22559 20.4211 8.84223L18.4422 4.88446C18.2817 4.5634 18.2014 4.40287 18.0817 4.28558C17.9758 4.18187 17.8482 4.10299 17.7081 4.05465C17.5496 4 17.3701 4 17.0112 4H6.98887C6.62991 4 6.45043 4 6.29198 4.05465C6.15185 4.10299 6.02422 4.18187 5.91833 4.28558C5.79858 4.40287 5.71832 4.5634 5.55778 4.88446Z" stroke="#000000" stroke-width="2" stroke-linecap="round" stroke-linejoin="round"/>
</svg>